<svg xmlns="http://www.w3.org/2000/svg" xmlns:xlink="http://www.w3.org/1999/xlink" width="728.939" height="863.198" viewBox="0 0 683.38 809.248"><defs><linearGradient id="c"><stop offset="0" stop-opacity=".793"/><stop offset="1" stop-opacity=".464"/></linearGradient><linearGradient id="b"><stop offset="0"/><stop offset=".68" stop-color="#515151" stop-opacity=".498"/><stop offset="1" stop-color="#515151" stop-opacity="0"/></linearGradient><linearGradient id="a"><stop offset="0" stop-color="#515151"/><stop offset=".5" stop-color="#515151"/><stop offset="1" stop-color="#515151" stop-opacity=".614"/></linearGradient><linearGradient xlink:href="#a" id="e" x1="282.511" y1="190.134" x2="612.298" y2="-139.653" gradientUnits="userSpaceOnUse" gradientTransform="translate(-1154.524 130.567) scale(.99456)"/><linearGradient xlink:href="#b" id="f" x1="437.585" y1="34.536" x2="623.326" y2="-177.071" gradientUnits="userSpaceOnUse" gradientTransform="translate(-1157.143 130.611)"/><linearGradient xlink:href="#c" id="g" x1="-622.314" y1="330.715" x2="-1166.078" y2="742.933" gradientUnits="userSpaceOnUse"/><clipPath clipPathUnits="userSpaceOnUse" id="d"><path d="M-896.765-98.136l4.735 255.92 255.632-.226c16.296-.014 31.643 6.962 40.835 16.62 10.538 11.07 16.852 23.237 16.758 43.027l-.04 150.593h151.8V-98.136z" opacity=".643" fill="#0ff" stroke-width=".938"/></clipPath></defs><g transform="translate(1158.143 78.743)"><rect ry="34.505" y="180.068" x="-1133.481" height="529.589" width="532.318" fill="none" stroke="#515151" stroke-width="44.786" stroke-linecap="round" stroke-linejoin="bevel" paint-order="stroke fill markers"/><circle r="182.606" cy="122.531" cx="-676.036" clip-path="url(#d)" fill="none" stroke="url(#e)" stroke-width="33.952" stroke-linejoin="round" stroke-dasharray="203.7093733,33.95156221"/><circle r="17.645" cy="122.531" cx="-676.036"/><path d="M-714.176-22.357l36.526 144.888 99.533 31.98" fill="none" stroke="url(#f)" stroke-width="16.062" stroke-linecap="round"/><rect width="60.224" height="121.092" x="-1025.117" y="137.531" ry="25.948" fill="#515151" stroke="#fff" stroke-width="14.908" stroke-linecap="round" stroke-linejoin="bevel"/><rect ry="25.948" y="137.531" x="-792.25" height="121.092" width="60.224" fill="#515151" stroke="#fff" stroke-width="14.908" stroke-linecap="round" stroke-linejoin="bevel"/><g transform="translate(-95.846 48.557) scale(.88985)" fill="#fff" stroke="url(#g)" stroke-width="4.688" opacity=".792" stroke-linecap="round" stroke-linejoin="bevel"><rect width="78.859" height="66.581" x="-909.574" y="330.715" ry="16.873"/><rect ry="16.873" y="330.715" x="-805.374" height="66.581" width="78.859"/><rect width="78.859" height="66.581" x="-701.174" y="330.715" ry="16.873"/><rect width="78.859" height="66.581" x="-1013.775" y="427.324" ry="16.873"/><rect ry="16.873" y="427.324" x="-909.574" height="66.581" width="78.859"/><rect width="78.859" height="66.581" x="-805.374" y="427.324" ry="16.873"/><rect ry="16.873" y="427.324" x="-701.174" height="66.581" width="78.859"/><rect ry="16.873" y="427.324" x="-1117.975" height="66.581" width="78.859"/><rect ry="16.873" y="523.934" x="-1013.775" height="66.581" width="78.859"/><rect width="78.859" height="66.581" x="-909.574" y="523.934" ry="16.873"/><rect ry="16.873" y="523.934" x="-805.374" height="66.581" width="78.859"/><rect width="78.859" height="66.581" x="-701.174" y="523.934" ry="16.873"/><rect width="78.859" height="66.581" x="-1117.975" y="523.934" ry="16.873"/><rect width="78.859" height="66.581" x="-1013.775" y="620.544" ry="16.873"/><rect ry="16.873" y="620.544" x="-909.574" height="66.581" width="78.859"/><rect width="78.859" height="66.581" x="-805.374" y="620.544" ry="16.873"/><rect ry="16.873" y="620.544" x="-701.174" height="66.581" width="78.859"/><rect ry="16.873" y="620.544" x="-1117.975" height="66.581" width="78.859"/><rect ry="16.873" y="330.715" x="-1013.775" height="66.581" width="78.859"/><rect width="78.859" height="66.581" x="-1117.975" y="330.715" ry="16.873"/></g></g></svg>